<svg xmlns="http://www.w3.org/2000/svg" xmlns:xlink="http://www.w3.org/1999/xlink" width="40" zoomAndPan="magnify" viewBox="0 0 30 30.000001" height="40" preserveAspectRatio="xMidYMid meet" version="1.0"><defs><clipPath id="8adeeb9206"><path d="M 9.195312 8.710938 L 20.804688 8.710938 L 20.804688 20.324219 L 9.195312 20.324219 Z M 9.195312 8.710938 " clip-rule="nonzero"/></clipPath></defs><g clip-path="url(#8adeeb9206)"><path fill="#858026" d="M 15 8.710938 C 11.796875 8.710938 9.195312 11.316406 9.195312 14.515625 C 9.195312 17.71875 11.796875 20.324219 15 20.324219 C 18.203125 20.324219 20.804688 17.71875 20.804688 14.515625 C 20.804688 11.316406 18.203125 8.710938 15 8.710938 Z M 17.957031 17.472656 C 17.882812 17.550781 17.785156 17.589844 17.6875 17.589844 C 17.585938 17.589844 17.484375 17.550781 17.410156 17.472656 L 15.832031 15.894531 C 15.371094 16.234375 14.824219 16.410156 14.277344 16.410156 C 13.605469 16.410156 12.9375 16.152344 12.429688 15.640625 C 11.40625 14.625 11.40625 12.964844 12.429688 11.945312 C 13.449219 10.925781 15.105469 10.925781 16.125 11.945312 C 17.054688 12.871094 17.136719 14.324219 16.378906 15.347656 L 17.957031 16.929688 C 18.109375 17.078125 18.109375 17.324219 17.957031 17.472656 Z M 17.957031 17.472656 " fill-opacity="1" fill-rule="nonzero"/></g><path fill="#858026" d="M 14.277344 11.953125 C 13.808594 11.953125 13.335938 12.132812 12.976562 12.492188 C 12.257812 13.207031 12.257812 14.375 12.976562 15.097656 C 13.691406 15.8125 14.859375 15.8125 15.582031 15.097656 C 16.296875 14.375 16.296875 13.207031 15.582031 12.492188 C 15.21875 12.132812 14.75 11.953125 14.277344 11.953125 Z M 14.277344 11.953125 " fill-opacity="1" fill-rule="nonzero"/></svg>